<svg width="224" height="223" viewBox="0 0 224 223" fill="none" xmlns="http://www.w3.org/2000/svg">
<path d="M111.698 65.5977C111.154 65.781 110.876 66.0856 110.466 66.4938C106.891 70.0465 103.327 73.6201 99.7643 77.1842L78.9309 98.0209L69.9486 106.997C69.1126 107.832 66.2155 110.63 65.7021 111.407C65.7675 111.891 66.4727 112.529 66.8346 112.893C68.9709 115.044 71.1192 117.185 73.2631 119.33L86.6576 132.727L102.519 148.588C105.441 151.509 108.438 154.603 111.418 157.442C111.633 157.474 111.745 157.387 111.894 157.238C114.132 155.007 116.366 152.77 118.601 150.536L132.182 136.958L148.489 120.654C151.486 117.656 154.654 114.568 157.583 111.521C155.115 108.824 152.155 105.979 149.55 103.374L136.321 90.1441L120.727 74.5526C117.8 71.6262 114.698 68.4155 111.698 65.5977Z" fill="#F04A16"/>
<path d="M167.032 120.938C166.994 120.947 166.956 120.956 166.919 120.968C166.098 121.224 154.202 133.426 152.464 135.164L102.386 185.243C100.843 186.786 88.6131 198.768 88.2229 199.549C88.6273 200.507 109.133 220.755 111.428 222.969C111.461 222.979 111.618 223.04 111.697 222.961C126.262 208.441 163.653 171.034 175.23 159.45L184.964 149.711C186.53 148.144 188.728 145.811 190.363 144.392C189.59 143.345 188.028 141.852 187.063 140.887L182.187 136.016C177.351 131.178 171.968 125.538 167.032 120.938Z" fill="black"/>
<path d="M23.5628 88.1602C22.9557 88.3317 15.9986 95.4611 14.804 96.6558L0.000237437 111.485C1.25695 113.05 4.6489 116.239 6.23696 117.826L18.7681 130.355L58.8315 170.417L71.8586 183.439C73.8467 185.426 76.8277 188.224 78.6338 190.274C79.1831 190.14 82.2317 186.931 82.8257 186.338L90.3126 178.855L97.9216 171.243C99.2764 169.886 100.997 168.248 102.252 166.833C96.9679 161.342 91.323 155.836 85.9245 150.438L56.7236 121.239L35.3703 99.8847C31.6296 96.1434 27.4006 91.7109 23.5628 88.1602Z" fill="black"/>
<path d="M111.637 0C110.572 0.541459 98.7714 12.688 97.2248 14.2351L52.2741 59.1855L38.4022 73.0572C37.5183 73.9412 33.3296 78.0276 32.8925 78.697C33.2522 79.5954 53.8022 99.9127 56.0584 102.087C56.2077 102.145 56.1096 102.118 56.3592 102.12C60.9501 97.6213 65.5246 92.9581 70.073 88.4071L95.071 63.413C108.332 50.152 121.919 36.8141 135.028 23.4318C127.561 15.7077 119.298 7.58046 111.637 0Z" fill="black"/>
<path d="M144.377 32.7734C143.516 33.322 141.148 35.7953 140.331 36.6126L132.635 44.3052L124.991 51.9536C123.997 52.949 121.693 55.1426 120.944 56.2036C121.719 57.2003 123.113 58.5212 124.035 59.4429L129.177 64.5859L146.014 81.4207L180.914 116.32C187.102 122.507 193.376 128.94 199.649 135.016L223.119 111.486V111.438C221.395 109.941 218.546 106.884 216.82 105.158L203.814 92.1537L164.444 52.781L151.552 39.8885C149.287 37.6236 146.708 34.9184 144.377 32.7734Z" fill="black"/>
</svg>