<svg width="571" height="112" viewBox="0 0 571 112" fill="none" xmlns="http://www.w3.org/2000/svg">
<path d="M37.5969 53.5051C39.0805 53.3574 43.4337 56.3331 44.9465 57.2411C48.1315 59.1526 52.4952 61.1609 55.2882 63.562C55.6264 65.5574 55.4838 69.72 55.4517 71.9387C55.3978 75.674 55.4774 79.8487 55.2207 83.5407C54.3623 84.807 52.3317 85.7765 50.9747 86.5726C48.4735 88.0603 45.9349 89.4842 43.3613 90.8427C41.5141 91.8361 39.7056 92.9576 37.8486 93.8971C36.4758 93.7667 21.2949 84.5698 19.9277 83.2458C19.7154 80.7113 19.9341 75.8674 19.9205 73.1383C19.9099 70.9805 19.8809 65.2711 20.1796 63.4393C22.2728 61.6012 28.4837 58.4544 31.0546 57.0221C32.9733 55.9531 35.6089 54.0829 37.5969 53.5051Z" fill="#F04A16"/>
<path d="M18.0443 18.3655C19.3657 18.4066 26.0332 22.7517 27.594 23.6483C30.0877 25.0806 34.0665 26.7446 35.5789 29.1C35.698 31.2362 35.7671 48.1664 35.1118 48.8882C35.0837 48.9191 35.0526 48.9471 35.0234 48.9767C33.4774 50.5375 30.9937 51.5311 29.0755 52.6181C25.3447 54.7322 21.8192 56.8482 17.9187 58.6601C16.1418 58.5111 2.1082 49.9273 0.494459 48.456C-0.0460062 47.9634 0.116637 30.2674 0.528276 28.4857C2.10349 26.509 6.11189 24.8084 8.38493 23.5565C11.3507 21.9234 14.8551 19.3322 18.0443 18.3655Z" fill="#F04A16"/>
<path d="M58.2894 18.1149C59.5859 17.8594 66.7586 22.6296 68.254 23.4893C70.4269 24.738 74.6268 26.6758 76.0905 28.577C76.4721 29.9008 76.264 47.6076 75.8963 49.3097C69.7764 52.6442 64.8184 55.9974 58.3615 59.0595C57.0448 58.7881 41.9913 49.9453 40.6524 48.7804C40.2099 46.281 40.2168 30.1415 40.9754 28.2705C41.2504 27.5922 42.1345 27.0837 42.7301 26.6937C44.7213 25.3902 46.9248 24.445 48.9902 23.2703C52.0723 21.5174 55.0215 19.5269 58.2894 18.1149Z" fill="white"/>
<path d="M142.619 45C141.869 42.7045 140.88 40.6477 139.653 38.8295C138.448 36.9886 137.005 35.4205 135.323 34.125C133.664 32.8295 131.778 31.8409 129.664 31.1591C127.55 30.4773 125.232 30.1364 122.71 30.1364C118.573 30.1364 114.812 31.2045 111.425 33.3409C108.039 35.4773 105.346 38.625 103.346 42.7841C101.346 46.9432 100.346 52.0455 100.346 58.0909C100.346 64.1364 101.357 69.2386 103.38 73.3977C105.403 77.5568 108.141 80.7045 111.596 82.8409C115.05 84.9773 118.937 86.0455 123.255 86.0455C127.255 86.0455 130.778 85.1932 133.823 83.4886C136.891 81.7614 139.278 79.3295 140.982 76.1932C142.71 73.0341 143.573 69.3182 143.573 65.0455L146.164 65.5909H125.164V58.0909H151.755V65.5909C151.755 71.3409 150.528 76.3409 148.073 80.5909C145.641 84.8409 142.278 88.1364 137.982 90.4773C133.71 92.7955 128.8 93.9545 123.255 93.9545C117.073 93.9545 111.641 92.5 106.96 89.5909C102.3 86.6818 98.6641 82.5455 96.0504 77.1818C93.4595 71.8182 92.1641 65.4545 92.1641 58.0909C92.1641 52.5682 92.9027 47.6023 94.38 43.1932C95.88 38.7614 97.9936 34.9886 100.721 31.875C103.448 28.7614 106.675 26.375 110.403 24.7159C114.13 23.0568 118.232 22.2273 122.71 22.2273C126.391 22.2273 129.823 22.7841 133.005 23.8977C136.21 24.9886 139.062 26.5455 141.562 28.5682C144.085 30.5682 146.187 32.9659 147.869 35.7614C149.55 38.5341 150.71 41.6136 151.346 45H142.619ZM165.144 93V40.6364H172.917V48.5455H173.462C174.417 45.9545 176.144 43.8523 178.644 42.2386C181.144 40.625 183.962 39.8182 187.099 39.8182C187.69 39.8182 188.428 39.8295 189.315 39.8523C190.201 39.875 190.871 39.9091 191.326 39.9545V48.1364C191.053 48.0682 190.428 47.9659 189.451 47.8295C188.496 47.6705 187.485 47.5909 186.417 47.5909C183.871 47.5909 181.599 48.125 179.599 49.1932C177.621 50.2386 176.053 51.6932 174.894 53.5568C173.758 55.3977 173.19 57.5 173.19 59.8636V93H165.144ZM216.272 94.2273C212.954 94.2273 209.942 93.6023 207.238 92.3523C204.533 91.0795 202.386 89.25 200.795 86.8636C199.204 84.4545 198.408 81.5455 198.408 78.1364C198.408 75.1364 198.999 72.7045 200.181 70.8409C201.363 68.9545 202.942 67.4773 204.92 66.4091C206.897 65.3409 209.079 64.5455 211.465 64.0227C213.874 63.4773 216.295 63.0455 218.727 62.7273C221.908 62.3182 224.488 62.0114 226.465 61.8068C228.465 61.5795 229.92 61.2045 230.829 60.6818C231.761 60.1591 232.227 59.25 232.227 57.9545V57.6818C232.227 54.3182 231.306 51.7045 229.465 49.8409C227.647 47.9773 224.886 47.0455 221.181 47.0455C217.34 47.0455 214.329 47.8864 212.147 49.5682C209.965 51.25 208.431 53.0455 207.545 54.9545L199.908 52.2273C201.272 49.0455 203.09 46.5682 205.363 44.7955C207.658 43 210.158 41.75 212.863 41.0455C215.59 40.3182 218.272 39.9545 220.908 39.9545C222.59 39.9545 224.522 40.1591 226.704 40.5682C228.908 40.9545 231.033 41.7614 233.079 42.9886C235.147 44.2159 236.863 46.0682 238.227 48.5455C239.59 51.0227 240.272 54.3409 240.272 58.5V93H232.227V85.9091H231.817C231.272 87.0455 230.363 88.2614 229.09 89.5568C227.817 90.8523 226.124 91.9545 224.011 92.8636C221.897 93.7727 219.317 94.2273 216.272 94.2273ZM217.499 87C220.681 87 223.363 86.375 225.545 85.125C227.749 83.875 229.408 82.2614 230.522 80.2841C231.658 78.3068 232.227 76.2273 232.227 74.0455V66.6818C231.886 67.0909 231.136 67.4659 229.977 67.8068C228.84 68.125 227.522 68.4091 226.022 68.6591C224.545 68.8864 223.102 69.0909 221.692 69.2727C220.306 69.4318 219.181 69.5682 218.317 69.6818C216.227 69.9545 214.272 70.3977 212.454 71.0114C210.658 71.6023 209.204 72.5 208.09 73.7045C206.999 74.8864 206.454 76.5 206.454 78.5455C206.454 81.3409 207.488 83.4545 209.556 84.8864C211.647 86.2955 214.295 87 217.499 87ZM256.048 93V23.1818H264.093V48.9545H264.775C265.366 48.0455 266.184 46.8864 267.229 45.4773C268.298 44.0455 269.82 42.7727 271.798 41.6591C273.798 40.5227 276.502 39.9545 279.911 39.9545C284.32 39.9545 288.207 41.0568 291.57 43.2614C294.934 45.4659 297.559 48.5909 299.445 52.6364C301.332 56.6818 302.275 61.4545 302.275 66.9545C302.275 72.5 301.332 77.3068 299.445 81.375C297.559 85.4205 294.945 88.5568 291.604 90.7841C288.264 92.9886 284.411 94.0909 280.048 94.0909C276.684 94.0909 273.991 93.5341 271.968 92.4205C269.945 91.2841 268.389 90 267.298 88.5682C266.207 87.1136 265.366 85.9091 264.775 84.9545H263.82V93H256.048ZM263.957 66.8182C263.957 70.7727 264.536 74.2614 265.695 77.2841C266.854 80.2841 268.548 82.6364 270.775 84.3409C273.002 86.0227 275.729 86.8636 278.957 86.8636C282.32 86.8636 285.127 85.9773 287.377 84.2045C289.65 82.4091 291.354 80 292.491 76.9773C293.65 73.9318 294.229 70.5455 294.229 66.8182C294.229 63.1364 293.661 59.8182 292.525 56.8636C291.411 53.8864 289.718 51.5341 287.445 49.8068C285.195 48.0568 282.366 47.1818 278.957 47.1818C275.684 47.1818 272.934 48.0114 270.707 49.6705C268.479 51.3068 266.798 53.6023 265.661 56.5568C264.525 59.4886 263.957 62.9091 263.957 66.8182ZM547.695 93.5455C546.014 93.5455 544.57 92.9432 543.366 91.7386C542.161 90.5341 541.559 89.0909 541.559 87.4091C541.559 85.7273 542.161 84.2841 543.366 83.0795C544.57 81.875 546.014 81.2727 547.695 81.2727C549.377 81.2727 550.82 81.875 552.025 83.0795C553.229 84.2841 553.832 85.7273 553.832 87.4091C553.832 88.5227 553.548 89.5455 552.979 90.4773C552.434 91.4091 551.695 92.1591 550.764 92.7273C549.854 93.2727 548.832 93.5455 547.695 93.5455Z" fill="#F04A16"/>
<path d="M337.218 93H315.673V23.1818H338.173C344.945 23.1818 350.741 24.5795 355.559 27.375C360.377 30.1477 364.07 34.1364 366.639 39.3409C369.207 44.5227 370.491 50.7273 370.491 57.9545C370.491 65.2273 369.195 71.4886 366.604 76.7386C364.014 81.9659 360.241 85.9886 355.286 88.8068C350.332 91.6023 344.309 93 337.218 93ZM324.127 85.5H336.673C342.445 85.5 347.229 84.3864 351.025 82.1591C354.82 79.9318 357.65 76.7614 359.514 72.6477C361.377 68.5341 362.309 63.6364 362.309 57.9545C362.309 52.3182 361.389 47.4659 359.548 43.3977C357.707 39.3068 354.957 36.1705 351.298 33.9886C347.639 31.7841 343.082 30.6818 337.627 30.6818H324.127V85.5ZM405.536 94.0909C400.491 94.0909 396.139 92.9773 392.479 90.75C388.843 88.5 386.036 85.3636 384.059 81.3409C382.104 77.2955 381.127 72.5909 381.127 67.2273C381.127 61.8636 382.104 57.1364 384.059 53.0455C386.036 48.9318 388.786 45.7273 392.309 43.4318C395.854 41.1136 399.991 39.9545 404.718 39.9545C407.445 39.9545 410.139 40.4091 412.798 41.3182C415.457 42.2273 417.877 43.7045 420.059 45.75C422.241 47.7727 423.979 50.4545 425.275 53.7955C426.57 57.1364 427.218 61.25 427.218 66.1364V69.5455H386.854V62.5909H419.036C419.036 59.6364 418.445 57 417.264 54.6818C416.104 52.3636 414.445 50.5341 412.286 49.1932C410.15 47.8523 407.627 47.1818 404.718 47.1818C401.514 47.1818 398.741 47.9773 396.4 49.5682C394.082 51.1364 392.298 53.1818 391.048 55.7045C389.798 58.2273 389.173 60.9318 389.173 63.8182V68.4545C389.173 72.4091 389.854 75.7614 391.218 78.5114C392.604 81.2386 394.525 83.3182 396.979 84.75C399.434 86.1591 402.286 86.8636 405.536 86.8636C407.65 86.8636 409.559 86.5682 411.264 85.9773C412.991 85.3636 414.479 84.4545 415.729 83.25C416.979 82.0227 417.945 80.5 418.627 78.6818L426.4 80.8636C425.582 83.5 424.207 85.8182 422.275 87.8182C420.343 89.7955 417.957 91.3409 415.116 92.4545C412.275 93.5455 409.082 94.0909 405.536 94.0909ZM476.548 52.3636L469.32 54.4091C468.866 53.2045 468.195 52.0341 467.309 50.8977C466.445 49.7386 465.264 48.7841 463.764 48.0341C462.264 47.2841 460.343 46.9091 458.002 46.9091C454.798 46.9091 452.127 47.6477 449.991 49.125C447.877 50.5795 446.82 52.4318 446.82 54.6818C446.82 56.6818 447.548 58.2614 449.002 59.4205C450.457 60.5795 452.729 61.5455 455.82 62.3182L463.593 64.2273C468.275 65.3636 471.764 67.1023 474.059 69.4432C476.354 71.7614 477.502 74.75 477.502 78.4091C477.502 81.4091 476.639 84.0909 474.911 86.4545C473.207 88.8182 470.82 90.6818 467.752 92.0455C464.684 93.4091 461.116 94.0909 457.048 94.0909C451.707 94.0909 447.286 92.9318 443.786 90.6136C440.286 88.2955 438.07 84.9091 437.139 80.4545L444.775 78.5455C445.502 81.3636 446.877 83.4773 448.9 84.8864C450.945 86.2955 453.616 87 456.911 87C460.661 87 463.639 86.2045 465.843 84.6136C468.07 83 469.184 81.0682 469.184 78.8182C469.184 77 468.548 75.4773 467.275 74.25C466.002 73 464.048 72.0682 461.411 71.4545L452.684 69.4091C447.889 68.2727 444.366 66.5114 442.116 64.125C439.889 61.7159 438.775 58.7045 438.775 55.0909C438.775 52.1364 439.604 49.5227 441.264 47.25C442.945 44.9773 445.229 43.1932 448.116 41.8977C451.025 40.6023 454.32 39.9545 458.002 39.9545C463.184 39.9545 467.252 41.0909 470.207 43.3636C473.184 45.6364 475.298 48.6364 476.548 52.3636ZM497.113 73.9091L496.977 63.9545H498.613L521.522 40.6364H531.477L507.067 65.3182H506.386L497.113 73.9091ZM489.613 93V23.1818H497.658V93H489.613ZM522.886 93L502.431 67.0909L508.158 61.5L533.113 93H522.886Z" fill="white"/>
</svg>
