<svg width="1200" height="223" viewBox="0 0 1200 223" fill="none" xmlns="http://www.w3.org/2000/svg">
<path d="M111.699 65.5977C111.155 65.781 110.877 66.0856 110.467 66.4938C106.892 70.0465 103.328 73.6201 99.7647 77.1842L78.9314 98.0209L69.9491 106.997C69.1131 107.832 66.216 110.63 65.7026 111.407C65.768 111.891 66.4732 112.529 66.8351 112.893C68.9714 115.044 71.1197 117.185 73.2636 119.33L86.6581 132.727L102.519 148.588C105.441 151.509 108.439 154.603 111.419 157.442C111.633 157.474 111.745 157.387 111.895 157.238C114.133 155.007 116.366 152.77 118.601 150.536L132.182 136.958L148.489 120.654C151.486 117.656 154.654 114.568 157.584 111.521C155.115 108.824 152.155 105.979 149.55 103.374L136.322 90.1441L120.727 74.5526C117.8 71.6262 114.698 68.4155 111.699 65.5977Z" fill="#724B68"/>
<path d="M167.032 120.938C166.995 120.947 166.956 120.956 166.919 120.968C166.099 121.224 154.202 133.426 152.464 135.164L102.386 185.243C100.844 186.786 88.6136 198.768 88.2234 199.549C88.6278 200.507 109.133 220.755 111.428 222.969C111.461 222.979 111.618 223.04 111.698 222.961C126.262 208.441 163.653 171.034 175.231 159.45L184.964 149.711C186.531 148.144 188.729 145.811 190.363 144.392C189.59 143.345 188.028 141.852 187.063 140.887L182.187 136.016C177.351 131.178 171.969 125.538 167.032 120.938Z" fill="black"/>
<path d="M23.5633 88.1602C22.9562 88.3317 15.9991 95.4611 14.8045 96.6558L0.000725718 111.485C1.25744 113.05 4.64938 116.239 6.23744 117.826L18.7686 130.355L58.832 170.417L71.8591 183.439C73.8472 185.426 76.8282 188.224 78.6343 190.274C79.1836 190.14 82.2322 186.931 82.8262 186.338L90.3131 178.855L97.9221 171.243C99.2769 169.886 100.998 168.248 102.252 166.833C96.9684 161.342 91.3235 155.836 85.925 150.438L56.724 121.239L35.3708 99.8847C31.6301 96.1434 27.401 91.7109 23.5633 88.1602Z" fill="black"/>
<path d="M111.638 0C110.573 0.541459 98.7719 12.688 97.2253 14.2351L52.2746 59.1855L38.4027 73.0572C37.5188 73.9412 33.3301 78.0276 32.893 78.697C33.2527 79.5954 53.8027 99.9127 56.0589 102.087C56.2082 102.145 56.1101 102.118 56.3597 102.12C60.9506 97.6213 65.5251 92.9581 70.0735 88.4071L95.0715 63.413C108.333 50.152 121.92 36.8141 135.028 23.4318C127.561 15.7077 119.298 7.58046 111.638 0Z" fill="black"/>
<path d="M144.377 32.7734C143.517 33.322 141.149 35.7953 140.331 36.6126L132.635 44.3052L124.992 51.9536C123.998 52.949 121.693 55.1426 120.944 56.2036C121.72 57.2003 123.113 58.5212 124.035 59.4429L129.178 64.5859L146.015 81.4207L180.914 116.32C187.102 122.507 193.376 128.94 199.649 135.016L223.119 111.486V111.438C221.396 109.941 218.547 106.884 216.821 105.158L203.814 92.1537L164.445 52.781L151.552 39.8885C149.287 37.6236 146.709 34.9184 144.377 32.7734Z" fill="black"/>
<path d="M717.438 48.621C725.558 48.7983 741.545 49.2431 749.353 48.6824C794.111 45.4679 825.757 65.5891 827.989 113.023C829.16 137.919 825.874 154.054 808.521 173.517C791.333 190.241 768.598 190.425 746.734 190.36C736.932 190.266 727.131 190.283 717.33 190.41C717.085 170.593 717.058 150.775 717.25 130.957C717.062 103.511 717.124 76.0651 717.438 48.621ZM734.87 174.85C756.468 174.868 779.9 178.156 796.299 162.348C816.169 145.512 816.125 98.5448 799.324 79.1753C782.025 59.2243 757.722 64.8603 734.667 63.7897C733.239 96.1121 735.364 129.91 734.575 162.363C734.483 166.282 734.619 170.919 734.87 174.85Z" fill="black"/>
<path d="M519.879 83.1067C530.805 81.7575 546.906 84.2629 555.085 92.4414C567.657 105.011 564.988 125.101 564.969 141.655L564.976 190.418C559.442 190.354 553.907 190.368 548.372 190.46L548.497 175.603C542.912 182.878 537.398 188.911 528.2 191.28C509.711 196.041 486.853 189.52 481.362 169.48C481.133 168.4 480.925 167.316 480.736 166.228C479.508 159.042 480.564 149.18 484.961 143.339C497.302 128.527 522.426 129.295 539.938 126.525C549.264 125.05 549.514 120.109 547.868 111.793C545.269 98.6575 529.62 95.0769 518.283 97.9611C508.543 100.438 503.923 104.6 498.784 112.989C493.971 111.554 487.815 109.452 483.244 107.57C490.389 91.0108 502.491 85.1378 519.879 83.1067ZM501.909 173.21C509.852 177.801 519.291 179.059 528.16 176.707C535.881 174.733 541.105 170.758 545.333 163.971C549.812 156.779 548.375 146.983 548.472 138.227L548.074 137.565C541.645 140.416 536.965 140.934 530.03 141.898C518.591 143.488 502.218 143.172 497.175 155.917C494.798 161.923 497.391 169.01 501.909 173.21Z" fill="#724B68"/>
<path d="M893.681 83.0218C894.64 82.9472 895.603 82.9027 896.566 82.8882C908.488 82.7256 920.289 86.2298 928.75 94.78C942.269 108.44 942.787 124.933 943.009 142.787L866.111 142.771C866.609 155.476 870.985 168.562 883.27 174.205C897.539 180.761 915.729 178.796 924.064 164.321C924.388 163.576 925.032 161.895 925.695 161.778C929.195 161.167 937.559 164.656 941.252 165.604C939.326 170.658 937.724 174.076 934.122 178.178C918.198 196.467 884.373 196.862 866.745 181.309C842.079 159.542 843.836 108.633 871.697 90.1056C878.231 85.7575 885.758 83.5575 893.681 83.0218ZM866.174 128.354L899.645 128.338L926.213 128.263C924.263 107.964 914.892 96.3755 893.139 97.4401C876.179 101.947 868.105 110.499 866.174 128.354Z" fill="black"/>
<path d="M1069.28 48.6063C1074.76 48.7231 1080.24 48.6707 1085.71 48.4492C1084.62 75.3697 1086.82 106.283 1085.42 132.712C1087.44 130.58 1089.94 128.567 1092.14 126.337L1114.12 103.832C1119.17 98.7356 1129.11 88.117 1134.17 84.2983C1140.54 84.141 1147.17 84.3017 1153.64 84.1841C1141.95 95.5411 1130.71 107.554 1119.14 119.042C1115.79 122.371 1112.34 125.878 1109.18 129.375C1110.38 131.562 1121.3 145.213 1123.77 148.158C1127.9 153.085 1135.24 163.409 1139.16 167.48C1139.57 167.796 1141.86 170.956 1142.42 171.641C1147.44 177.733 1151.99 184.255 1157.1 190.27C1150.19 190.415 1143.28 190.411 1136.38 190.256C1133.14 186.552 1128.92 180.832 1125.8 176.864L1106.73 152.731C1103.61 148.758 1099.95 143.525 1096.6 139.956C1092.92 143.268 1089.27 146.62 1085.67 150.01C1085.44 163.44 1085.78 176.908 1085.53 190.367L1069.26 190.272C1068.54 168.766 1069.16 143.708 1069.15 121.869C1069.14 98.2173 1068.56 71.9846 1069.28 48.6063Z" fill="black"/>
<path d="M1001.5 83.0318C1010.16 82.0596 1021.51 83.9988 1028.87 89.0046C1034.7 92.9666 1041.3 101.188 1042.58 108.018C1037.77 109.26 1032.82 110.465 1028.12 112.02C1022.11 98.842 1009.89 94.1004 996.413 97.835C986.277 100.642 981.635 106.483 982.729 116.854C983.968 118.753 986.045 121.647 987.952 122.808C1002.71 131.782 1023.71 129.519 1036.92 141.688C1047.63 151.556 1047.02 169.812 1036.68 179.915C1026.91 189.47 1016.41 192.06 1003.05 192.381C982.381 191.716 968.968 185.723 962.806 165.024C968.232 163.616 972.884 161.898 978.557 160.794C982.226 175.676 993.126 178.224 1006.79 177.684C1016.11 177.316 1028.77 171.289 1027.69 160.436C1026.16 145.103 1001.35 145.197 990.237 141.367C984.636 139.435 979.423 137.46 974.839 133.497C963.484 123.76 963.591 106.246 972.976 95.2469C979.907 87.1235 991.171 83.7437 1001.5 83.0318Z" fill="black"/>
<path d="M596.736 48.5592L613.233 48.5C614.176 64.3344 612.219 85.2241 613.527 100.656C614.814 100.801 616.625 97.4517 617.392 96.3542C623.524 87.578 628.906 85.6631 638.465 82.8258C638.008 88.2487 638.181 92.0568 638.325 97.5093C636.303 98.1418 634.1 98.8334 632.087 99.5767C610.647 107.49 609.879 141.04 616.527 159.001C619.294 166.479 624.591 172.183 631.862 175.438L638.326 177.517C638.132 182.286 638.313 187.488 638.387 192.292C630.23 190.042 625.258 187.968 619.473 181.304C617.825 179.406 615.235 174.854 613.33 174.023C611.893 175.71 612.705 187.323 612.801 190.517C607.186 190.394 602.229 190.304 596.61 190.54C596.886 175.335 596.548 158.935 596.542 143.629L596.736 48.5592Z" fill="#724B68"/>
<path d="M315.017 47.5354C315.182 47.5271 315.906 47.7693 316.115 47.8332C316.56 49.4574 316.311 61.3348 316.354 63.8192C300.88 70.3838 294.099 74.7924 286.798 91.4621C280.302 106.294 280.248 131.504 286.427 146.531C293.032 162.597 300.767 168.438 316.248 174.911C316.248 180.365 316.217 185.819 316.154 191.272C312.35 190.456 309.466 189.923 305.866 188.465C262.738 173.374 256.198 112.484 275.243 76.913C284.411 59.7901 297.068 52.784 315.017 47.5354Z" fill="#724B68"/>
<path d="M452.681 82.9853C456.201 82.4961 462.394 82.6258 466.138 82.6016L466.186 99.8026C455.924 97.3568 443.022 98.0285 435.589 106.472C432.576 109.901 430.531 114.069 429.664 118.55C428.493 124.759 429.239 143.233 429.248 151.009C429.263 163.598 428.604 178.177 429.411 190.481C424.012 190.446 418.025 190.265 412.694 190.793C412.202 188.147 412.522 164.128 412.526 160.138L412.517 84.2716L428.747 84.2261C428.342 89.577 428.427 96.6163 428.511 101.986C433.827 90.9441 440.077 84.7919 452.681 82.9853Z" fill="#724B68"/>
<path d="M334.653 119.302C350.414 119.748 370.382 119.681 386.113 119.211C384.809 134.94 388.377 144.492 380.541 160.902C373.643 175.348 363.791 183.5 348.901 189.124C344.19 190.505 339.371 191.488 334.495 192.06L334.643 175.95C357.546 170.496 367.612 158.393 369.371 134.949L334.523 135.053C334.665 129.804 334.708 124.553 334.653 119.302Z" fill="#724B68"/>
<path d="M655.974 84.0273C680.508 90.7245 689.45 111.811 690.277 135.604C690.946 154.837 685.162 175.478 667.872 186.066C663.21 188.999 661.172 189.776 655.907 191.456L655.953 175.166C673.982 163.042 676.291 142.132 671.979 121.955C669.929 112.368 664.366 105.097 655.967 100.047C655.809 95.0359 655.965 89.1072 655.974 84.0273Z" fill="#724B68"/>
<path d="M334.599 47C361.373 50.7266 379.22 66.89 385.408 93.1593C379.496 93.0881 373.584 93.0669 367.672 93.0954C364.971 88.8382 363.65 83.7729 360.071 78.8358C353.759 70.1283 345.07 65.1963 334.566 63.3634L334.599 47Z" fill="#724B68"/>
<path d="M1186.01 166.328C1192.91 166.033 1198.73 171.369 1199.05 178.257C1199.36 185.146 1194.04 190.988 1187.15 191.319C1180.23 191.65 1174.37 186.305 1174.05 179.392C1173.74 172.479 1179.1 166.625 1186.01 166.328Z" fill="#724B68"/>
</svg>
