<svg width="77" height="77" viewBox="0 0 77 77" fill="none" xmlns="http://www.w3.org/2000/svg">
<path d="M37.5969 35.5403C39.0805 35.3926 43.4337 38.3683 44.9465 39.2763C48.1315 41.1877 52.4952 43.1961 55.2882 45.5972C55.6264 47.5926 55.4838 51.7551 55.4517 53.9739C55.3977 57.7091 55.4774 61.8838 55.2207 65.5759C54.3623 66.8422 52.3317 67.8116 50.9747 68.6078C48.4735 70.0955 45.9349 71.5193 43.3613 72.8778C41.5141 73.8713 39.7056 74.9927 37.8486 75.9323C36.4758 75.8019 21.2949 66.6049 19.9277 65.281C19.7154 62.7465 19.9341 57.9025 19.9205 55.1735C19.9098 53.0157 19.8809 47.3063 20.1796 45.4745C22.2727 43.6363 28.4837 40.4895 31.0546 39.0572C32.9733 37.9883 35.6089 36.1181 37.5969 35.5403Z" fill="#F04A16"/>
<path d="M18.0443 0.400656C19.3656 0.441718 26.0332 4.78689 27.594 5.68343C30.0876 7.11577 34.0665 8.77979 35.5789 11.1352C35.698 13.2714 35.7671 30.2015 35.1118 30.9233C35.0837 30.9542 35.0526 30.9822 35.0233 31.0119C33.4774 32.5727 30.9937 33.5663 29.0755 34.6533C25.3446 36.7673 21.8192 38.8834 17.9187 40.6952C16.1418 40.5462 2.10818 31.9625 0.494444 30.4912C-0.0460214 29.9985 0.116622 12.3025 0.52826 10.5209C2.10347 8.54417 6.11188 6.8436 8.38492 5.59169C11.3507 3.95854 14.8551 1.36737 18.0443 0.400656Z" fill="#F04A16"/>
<path d="M58.2894 0.150039C59.5859 -0.105445 66.7586 4.66481 68.254 5.52441C70.4269 6.7732 74.6268 8.711 76.0905 10.6121C76.4721 11.9359 76.264 29.6427 75.8963 31.3448C69.7764 34.6793 64.8184 38.0326 58.3615 41.0946C57.0448 40.8233 41.9913 31.9805 40.6524 30.8156C40.2099 28.3162 40.2168 12.1767 40.9754 10.3057C41.2504 9.62731 42.1345 9.11886 42.7301 8.7289C44.7213 7.42536 46.9248 6.48014 48.9902 5.30546C52.0723 3.5526 55.0215 1.56209 58.2894 0.150039Z" fill="white"/>
</svg>
