<svg width="224" height="223" viewBox="0 0 224 223" fill="none" xmlns="http://www.w3.org/2000/svg">
<path d="M111.698 65.5977C111.154 65.781 110.876 66.0856 110.466 66.4938C106.891 70.0465 103.327 73.6201 99.764 77.1842L78.9307 98.0209L69.9484 106.997C69.1124 107.832 66.2153 110.63 65.7019 111.407C65.7673 111.891 66.4725 112.529 66.8344 112.893C68.9707 115.044 71.119 117.185 73.2629 119.33L86.6573 132.727L102.518 148.588C105.44 151.509 108.438 154.603 111.418 157.442C111.632 157.474 111.745 157.387 111.894 157.238C114.132 155.007 116.365 152.77 118.6 150.536L132.182 136.958L148.489 120.654C151.486 117.656 154.653 114.568 157.583 111.521C155.114 108.824 152.154 105.979 149.55 103.374L136.321 90.1441L120.726 74.5526C117.799 71.6262 114.698 68.4155 111.698 65.5977Z" fill="#724B68"/>
<path d="M167.032 120.938C166.994 120.947 166.956 120.956 166.918 120.968C166.098 121.224 154.201 133.426 152.463 135.164L102.386 185.243C100.843 186.786 88.6129 198.768 88.2227 199.549C88.627 200.507 109.132 220.755 111.428 222.969C111.46 222.979 111.617 223.04 111.697 222.961C126.261 208.441 163.652 171.034 175.23 159.45L184.964 149.711C186.53 148.144 188.728 145.811 190.363 144.392C189.59 143.345 188.028 141.852 187.063 140.887L182.186 136.016C177.35 131.178 171.968 125.538 167.032 120.938Z" fill="white"/>
<path d="M23.5626 88.1602C22.9555 88.3317 15.9983 95.4611 14.8037 96.6558L-6.70389e-06 111.485C1.25671 113.05 4.64865 116.239 6.23671 117.826L18.7679 130.355L58.8313 170.417L71.8584 183.439C73.8465 185.426 76.8275 188.224 78.6335 190.274C79.1829 190.14 82.2315 186.931 82.8255 186.338L90.3124 178.855L97.9213 171.243C99.2761 169.886 100.997 168.248 102.252 166.833C96.9676 161.342 91.3228 155.836 85.9242 150.438L56.7233 121.239L35.37 99.8847C31.6293 96.1434 27.4003 91.7109 23.5626 88.1602Z" fill="white"/>
<path d="M111.637 0C110.572 0.541459 98.7712 12.688 97.2245 14.2351L52.2738 59.1855L38.402 73.0572C37.518 73.9412 33.3293 78.0276 32.8923 78.697C33.252 79.5954 53.8019 99.9127 56.0581 102.087C56.2075 102.145 56.1094 102.118 56.359 102.12C60.9498 97.6213 65.5244 92.9581 70.0727 88.4071L95.0708 63.413C108.332 50.152 121.919 36.8141 135.028 23.4318C127.561 15.7077 119.298 7.58046 111.637 0Z" fill="white"/>
<path d="M144.377 32.7734C143.516 33.322 141.148 35.7953 140.33 36.6126L132.634 44.3052L124.991 51.9536C123.997 52.949 121.693 55.1426 120.944 56.2036C121.719 57.2003 123.113 58.5212 124.034 59.4429L129.177 64.5859L146.014 81.4207L180.913 116.32C187.102 122.507 193.376 128.94 199.648 135.016L223.118 111.486V111.438C221.395 109.941 218.546 106.884 216.82 105.158L203.814 92.1537L164.444 52.781L151.552 39.8885C149.287 37.6236 146.708 34.9184 144.377 32.7734Z" fill="white"/>
</svg>
