<svg width="1200" height="223" viewBox="0 0 1200 223" fill="none" xmlns="http://www.w3.org/2000/svg">
<path d="M111.698 65.5977C111.154 65.781 110.876 66.0856 110.466 66.4938C106.891 70.0465 103.327 73.6201 99.7638 77.1842L78.9304 98.0209L69.9481 106.997C69.1121 107.832 66.215 110.63 65.7017 111.407C65.7671 111.891 66.4723 112.529 66.8341 112.893C68.9704 115.044 71.1187 117.185 73.2627 119.33L86.6571 132.727L102.518 148.588C105.44 151.509 108.438 154.603 111.418 157.442C111.632 157.474 111.745 157.387 111.894 157.238C114.132 155.007 116.365 152.77 118.6 150.536L132.181 136.958L148.488 120.654C151.485 117.656 154.653 114.568 157.583 111.521C155.114 108.824 152.154 105.979 149.55 103.374L136.321 90.1441L120.726 74.5526C117.799 71.6262 114.697 68.4155 111.698 65.5977Z" fill="#F04A16"/>
<path d="M167.031 120.938C166.994 120.947 166.955 120.956 166.918 120.968C166.098 121.224 154.201 133.426 152.463 135.164L102.385 185.243C100.843 186.786 88.6126 198.768 88.2224 199.549C88.6268 200.507 109.132 220.755 111.428 222.969C111.46 222.979 111.617 223.04 111.697 222.961C126.261 208.441 163.652 171.034 175.23 159.45L184.963 149.711C186.53 148.144 188.728 145.811 190.362 144.392C189.589 143.345 188.028 141.852 187.062 140.887L182.186 136.016C177.35 131.178 171.968 125.538 167.031 120.938Z" fill="black"/>
<path d="M23.5628 88.1602C22.9557 88.3317 15.9986 95.4611 14.804 96.6558L0.000237437 111.485C1.25695 113.05 4.6489 116.239 6.23696 117.826L18.7681 130.355L58.8315 170.417L71.8586 183.439C73.8467 185.426 76.8277 188.224 78.6338 190.274C79.1831 190.14 82.2317 186.931 82.8257 186.338L90.3126 178.855L97.9216 171.243C99.2764 169.886 100.997 168.248 102.252 166.833C96.9679 161.342 91.323 155.836 85.9245 150.438L56.7236 121.239L35.3703 99.8847C31.6296 96.1434 27.4006 91.7109 23.5628 88.1602Z" fill="black"/>
<path d="M111.637 0C110.572 0.541459 98.7709 12.688 97.2243 14.2351L52.2736 59.1855L38.4017 73.0572C37.5178 73.9412 33.3291 78.0276 32.892 78.697C33.2517 79.5954 53.8017 99.9127 56.0579 102.087C56.2072 102.145 56.1091 102.118 56.3587 102.12C60.9496 97.6213 65.5241 92.9581 70.0725 88.4071L95.0706 63.413C108.332 50.152 121.919 36.8141 135.027 23.4318C127.56 15.7077 119.297 7.58046 111.637 0Z" fill="black"/>
<path d="M144.377 32.7734C143.516 33.322 141.148 35.7953 140.33 36.6126L132.634 44.3052L124.991 51.9536C123.997 52.949 121.692 55.1426 120.944 56.2036C121.719 57.2003 123.113 58.5212 124.034 59.4429L129.177 64.5859L146.014 81.4207L180.913 116.32C187.101 122.507 193.375 128.94 199.648 135.016L223.118 111.486V111.438C221.395 109.941 218.546 106.884 216.82 105.158L203.813 92.1537L164.444 52.781L151.551 39.8885C149.286 37.6236 146.708 34.9184 144.377 32.7734Z" fill="black"/>
<path d="M717.438 48.621C725.557 48.7983 741.544 49.2431 749.352 48.6824C794.111 45.4679 825.757 65.5891 827.988 113.023C829.159 137.919 825.873 154.054 808.52 173.517C791.332 190.241 768.597 190.425 746.733 190.36C736.932 190.266 727.13 190.283 717.329 190.41C717.084 170.593 717.058 150.775 717.249 130.957C717.061 103.511 717.123 76.0651 717.438 48.621ZM734.87 174.85C756.467 174.868 779.899 178.156 796.298 162.348C816.168 145.512 816.124 98.5448 799.324 79.1753C782.024 59.2243 757.721 64.8603 734.666 63.7897C733.238 96.1121 735.363 129.91 734.574 162.363C734.482 166.282 734.618 170.919 734.87 174.85Z" fill="black"/>
<path d="M519.878 83.1067C530.805 81.7575 546.905 84.2629 555.085 92.4414C567.656 105.011 564.987 125.101 564.968 141.655L564.975 190.418C559.441 190.354 553.906 190.368 548.372 190.46L548.496 175.603C542.911 182.878 537.397 188.911 528.199 191.28C509.71 196.041 486.852 189.52 481.361 169.48C481.133 168.4 480.924 167.316 480.735 166.228C479.507 159.042 480.563 149.18 484.96 143.339C497.301 128.527 522.425 129.295 539.938 126.525C549.263 125.05 549.513 120.109 547.868 111.793C545.268 98.6575 529.62 95.0769 518.282 97.9611C508.542 100.438 503.922 104.6 498.784 112.989C493.971 111.554 487.815 109.452 483.243 107.57C490.388 91.0108 502.49 85.1378 519.878 83.1067ZM501.908 173.21C509.851 177.801 519.29 179.059 528.159 176.707C535.88 174.733 541.105 170.758 545.332 163.971C549.811 156.779 548.374 146.983 548.471 138.227L548.073 137.565C541.644 140.416 536.964 140.934 530.029 141.898C518.59 143.488 502.217 143.172 497.174 155.917C494.798 161.923 497.391 169.01 501.908 173.21Z" fill="#F04A16"/>
<path d="M893.681 83.0218C894.639 82.9472 895.602 82.9027 896.565 82.8882C908.487 82.7256 920.288 86.2298 928.749 94.78C942.268 108.44 942.786 124.933 943.008 142.787L866.11 142.771C866.609 155.476 870.984 168.562 883.269 174.205C897.538 180.761 915.728 178.796 924.063 164.321C924.388 163.576 925.031 161.895 925.695 161.778C929.194 161.167 937.558 164.656 941.251 165.604C939.325 170.658 937.723 174.076 934.122 178.178C918.197 196.467 884.373 196.862 866.744 181.309C842.078 159.542 843.835 108.633 871.696 90.1056C878.23 85.7575 885.757 83.5575 893.681 83.0218ZM866.173 128.354L899.644 128.338L926.212 128.263C924.262 107.964 914.891 96.3755 893.138 97.4401C876.178 101.947 868.104 110.499 866.173 128.354Z" fill="black"/>
<path d="M1069.28 48.6063C1074.76 48.7231 1080.24 48.6707 1085.71 48.4492C1084.62 75.3697 1086.82 106.283 1085.42 132.712C1087.44 130.58 1089.94 128.567 1092.13 126.337L1114.11 103.832C1119.17 98.7356 1129.11 88.117 1134.17 84.2983C1140.54 84.141 1147.17 84.3017 1153.64 84.1841C1141.95 95.5411 1130.71 107.554 1119.14 119.042C1115.79 122.371 1112.34 125.878 1109.18 129.375C1110.38 131.562 1121.3 145.213 1123.77 148.158C1127.89 153.085 1135.24 163.409 1139.16 167.48C1139.56 167.796 1141.85 170.956 1142.42 171.641C1147.44 177.733 1151.99 184.255 1157.1 190.27C1150.19 190.415 1143.28 190.411 1136.38 190.256C1133.14 186.552 1128.92 180.832 1125.8 176.864L1106.73 152.731C1103.61 148.758 1099.95 143.525 1096.6 139.956C1092.92 143.268 1089.27 146.62 1085.67 150.01C1085.44 163.44 1085.77 176.908 1085.53 190.367L1069.26 190.272C1068.54 168.766 1069.16 143.708 1069.15 121.869C1069.14 98.2173 1068.56 71.9846 1069.28 48.6063Z" fill="black"/>
<path d="M1001.49 83.0318C1010.16 82.0596 1021.51 83.9988 1028.87 89.0046C1034.69 92.9666 1041.3 101.188 1042.58 108.018C1037.77 109.26 1032.82 110.465 1028.12 112.02C1022.1 98.842 1009.89 94.1004 996.412 97.835C986.276 100.642 981.635 106.483 982.729 116.854C983.968 118.753 986.044 121.647 987.951 122.808C1002.71 131.782 1023.71 129.519 1036.92 141.688C1047.63 151.556 1047.02 169.812 1036.68 179.915C1026.91 189.47 1016.41 192.06 1003.05 192.381C982.38 191.716 968.967 185.723 962.806 165.024C968.232 163.616 972.883 161.898 978.556 160.794C982.225 175.676 993.126 178.224 1006.78 177.684C1016.11 177.316 1028.77 171.289 1027.69 160.436C1026.16 145.103 1001.34 145.197 990.236 141.367C984.636 139.435 979.423 137.46 974.839 133.497C963.483 123.76 963.59 106.246 972.975 95.2469C979.907 87.1235 991.17 83.7437 1001.49 83.0318Z" fill="black"/>
<path d="M596.735 48.5592L613.232 48.5C614.175 64.3344 612.218 85.2241 613.527 100.656C614.814 100.801 616.624 97.4517 617.391 96.3542C623.523 87.578 628.905 85.6631 638.465 82.8258C638.007 88.2487 638.18 92.0568 638.324 97.5093C636.302 98.1418 634.099 98.8334 632.086 99.5767C610.647 107.49 609.878 141.04 616.526 159.001C619.293 166.479 624.59 172.183 631.861 175.438L638.325 177.517C638.132 182.286 638.312 187.488 638.387 192.292C630.229 190.042 625.258 187.968 619.472 181.304C617.824 179.406 615.234 174.854 613.33 174.023C611.892 175.71 612.704 187.323 612.801 190.517C607.185 190.394 602.228 190.304 596.609 190.54C596.885 175.335 596.547 158.935 596.541 143.629L596.735 48.5592Z" fill="#F04A16"/>
<path d="M315.016 47.5354C315.181 47.5271 315.906 47.7693 316.114 47.8332C316.559 49.4574 316.311 61.3348 316.354 63.8192C300.879 70.3838 294.098 74.7924 286.798 91.4621C280.301 106.294 280.247 131.504 286.426 146.531C293.032 162.597 300.766 168.438 316.247 174.911C316.247 180.365 316.216 185.819 316.153 191.272C312.349 190.456 309.465 189.923 305.865 188.465C262.737 173.374 256.197 112.484 275.242 76.913C284.41 59.7901 297.067 52.784 315.016 47.5354Z" fill="#F04A16"/>
<path d="M452.681 82.9853C456.201 82.4961 462.394 82.6258 466.137 82.6016L466.185 99.8026C455.923 97.3568 443.021 98.0285 435.588 106.472C432.575 109.901 430.53 114.069 429.663 118.55C428.492 124.759 429.238 143.233 429.248 151.009C429.262 163.598 428.603 178.177 429.41 190.481C424.011 190.446 418.024 190.265 412.693 190.793C412.201 188.147 412.521 164.128 412.526 160.138L412.517 84.2716L428.746 84.2261C428.341 89.577 428.426 96.6163 428.51 101.986C433.826 90.9441 440.076 84.7919 452.681 82.9853Z" fill="#F04A16"/>
<path d="M334.652 119.302C350.414 119.748 370.381 119.681 386.112 119.211C384.808 134.94 388.376 144.492 380.54 160.902C373.642 175.348 363.79 183.5 348.9 189.124C344.189 190.505 339.37 191.488 334.495 192.06L334.643 175.95C357.545 170.496 367.612 158.393 369.37 134.949L334.522 135.053C334.664 129.804 334.708 124.553 334.652 119.302Z" fill="#F04A16"/>
<path d="M655.973 84.0273C680.508 90.7245 689.449 111.811 690.276 135.604C690.945 154.837 685.162 175.478 667.871 186.066C663.21 188.999 661.171 189.776 655.907 191.456L655.953 175.166C673.981 163.042 676.291 142.132 671.978 121.955C669.929 112.368 664.366 105.097 655.966 100.047C655.809 95.0359 655.964 89.1072 655.973 84.0273Z" fill="#F04A16"/>
<path d="M334.598 47C361.372 50.7266 379.219 66.89 385.407 93.1593C379.495 93.0881 373.583 93.0669 367.671 93.0954C364.97 88.8382 363.649 83.7729 360.07 78.8358C353.758 70.1283 345.069 65.1963 334.565 63.3634L334.598 47Z" fill="#F04A16"/>
<path d="M1186.01 166.328C1192.91 166.033 1198.73 171.369 1199.05 178.257C1199.36 185.146 1194.04 190.988 1187.15 191.319C1180.23 191.65 1174.37 186.305 1174.05 179.392C1173.74 172.479 1179.1 166.625 1186.01 166.328Z" fill="#F04A16"/>
</svg>
