<svg width="484" height="112" viewBox="0 0 484 112" fill="none" xmlns="http://www.w3.org/2000/svg">
<path d="M56.1818 45C55.4318 42.7045 54.4432 40.6477 53.2159 38.8295C52.0114 36.9886 50.5682 35.4205 48.8864 34.125C47.2273 32.8295 45.3409 31.8409 43.2273 31.1591C41.1136 30.4773 38.7955 30.1364 36.2727 30.1364C32.1364 30.1364 28.375 31.2045 24.9886 33.3409C21.6023 35.4773 18.9091 38.625 16.9091 42.7841C14.9091 46.9432 13.9091 52.0455 13.9091 58.0909C13.9091 64.1364 14.9205 69.2386 16.9432 73.3977C18.9659 77.5568 21.7045 80.7045 25.1591 82.8409C28.6136 84.9773 32.5 86.0455 36.8182 86.0455C40.8182 86.0455 44.3409 85.1932 47.3864 83.4886C50.4545 81.7614 52.8409 79.3295 54.5455 76.1932C56.2727 73.0341 57.1364 69.3182 57.1364 65.0455L59.7273 65.5909H38.7273V58.0909H65.3182V65.5909C65.3182 71.3409 64.0909 76.3409 61.6364 80.5909C59.2045 84.8409 55.8409 88.1364 51.5455 90.4773C47.2727 92.7955 42.3636 93.9545 36.8182 93.9545C30.6364 93.9545 25.2045 92.5 20.5227 89.5909C15.8636 86.6818 12.2273 82.5455 9.61364 77.1818C7.02273 71.8182 5.72727 65.4545 5.72727 58.0909C5.72727 52.5682 6.46591 47.6023 7.94318 43.1932C9.44318 38.7614 11.5568 34.9886 14.2841 31.875C17.0114 28.7614 20.2386 26.375 23.9659 24.7159C27.6932 23.0568 31.7955 22.2273 36.2727 22.2273C39.9545 22.2273 43.3864 22.7841 46.5682 23.8977C49.7727 24.9886 52.625 26.5455 55.125 28.5682C57.6477 30.5682 59.75 32.9659 61.4318 35.7614C63.1136 38.5341 64.2727 41.6136 64.9091 45H56.1818ZM78.7074 93V40.6364H86.4801V48.5455H87.0256C87.9801 45.9545 89.7074 43.8523 92.2074 42.2386C94.7074 40.625 97.5256 39.8182 100.662 39.8182C101.253 39.8182 101.991 39.8295 102.878 39.8523C103.764 39.875 104.435 39.9091 104.889 39.9545V48.1364C104.616 48.0682 103.991 47.9659 103.014 47.8295C102.06 47.6705 101.048 47.5909 99.9801 47.5909C97.4347 47.5909 95.1619 48.125 93.1619 49.1932C91.1847 50.2386 89.6165 51.6932 88.4574 53.5568C87.321 55.3977 86.7528 57.5 86.7528 59.8636V93H78.7074ZM129.835 94.2273C126.517 94.2273 123.506 93.6023 120.801 92.3523C118.097 91.0795 115.949 89.25 114.358 86.8636C112.767 84.4545 111.972 81.5455 111.972 78.1364C111.972 75.1364 112.563 72.7045 113.744 70.8409C114.926 68.9545 116.506 67.4773 118.483 66.4091C120.46 65.3409 122.642 64.5455 125.028 64.0227C127.438 63.4773 129.858 63.0455 132.29 62.7273C135.472 62.3182 138.051 62.0114 140.028 61.8068C142.028 61.5795 143.483 61.2045 144.392 60.6818C145.324 60.1591 145.79 59.25 145.79 57.9545V57.6818C145.79 54.3182 144.869 51.7045 143.028 49.8409C141.21 47.9773 138.449 47.0455 134.744 47.0455C130.903 47.0455 127.892 47.8864 125.71 49.5682C123.528 51.25 121.994 53.0455 121.108 54.9545L113.472 52.2273C114.835 49.0455 116.653 46.5682 118.926 44.7955C121.222 43 123.722 41.75 126.426 41.0455C129.153 40.3182 131.835 39.9545 134.472 39.9545C136.153 39.9545 138.085 40.1591 140.267 40.5682C142.472 40.9545 144.597 41.7614 146.642 42.9886C148.71 44.2159 150.426 46.0682 151.79 48.5455C153.153 51.0227 153.835 54.3409 153.835 58.5V93H145.79V85.9091H145.381C144.835 87.0455 143.926 88.2614 142.653 89.5568C141.381 90.8523 139.688 91.9545 137.574 92.8636C135.46 93.7727 132.881 94.2273 129.835 94.2273ZM131.062 87C134.244 87 136.926 86.375 139.108 85.125C141.313 83.875 142.972 82.2614 144.085 80.2841C145.222 78.3068 145.79 76.2273 145.79 74.0455V66.6818C145.449 67.0909 144.699 67.4659 143.54 67.8068C142.403 68.125 141.085 68.4091 139.585 68.6591C138.108 68.8864 136.665 69.0909 135.256 69.2727C133.869 69.4318 132.744 69.5682 131.881 69.6818C129.79 69.9545 127.835 70.3977 126.017 71.0114C124.222 71.6023 122.767 72.5 121.653 73.7045C120.563 74.8864 120.017 76.5 120.017 78.5455C120.017 81.3409 121.051 83.4545 123.119 84.8864C125.21 86.2955 127.858 87 131.062 87ZM169.611 93V23.1818H177.656V48.9545H178.338C178.929 48.0455 179.747 46.8864 180.793 45.4773C181.861 44.0455 183.384 42.7727 185.361 41.6591C187.361 40.5227 190.065 39.9545 193.474 39.9545C197.884 39.9545 201.77 41.0568 205.134 43.2614C208.497 45.4659 211.122 48.5909 213.009 52.6364C214.895 56.6818 215.838 61.4545 215.838 66.9545C215.838 72.5 214.895 77.3068 213.009 81.375C211.122 85.4205 208.509 88.5568 205.168 90.7841C201.827 92.9886 197.974 94.0909 193.611 94.0909C190.247 94.0909 187.554 93.5341 185.531 92.4205C183.509 91.2841 181.952 90 180.861 88.5682C179.77 87.1136 178.929 85.9091 178.338 84.9545H177.384V93H169.611ZM177.52 66.8182C177.52 70.7727 178.099 74.2614 179.259 77.2841C180.418 80.2841 182.111 82.6364 184.338 84.3409C186.565 86.0227 189.293 86.8636 192.52 86.8636C195.884 86.8636 198.69 85.9773 200.94 84.2045C203.213 82.4091 204.918 80 206.054 76.9773C207.213 73.9318 207.793 70.5455 207.793 66.8182C207.793 63.1364 207.224 59.8182 206.088 56.8636C204.974 53.8864 203.281 51.5341 201.009 49.8068C198.759 48.0568 195.929 47.1818 192.52 47.1818C189.247 47.1818 186.497 48.0114 184.27 49.6705C182.043 51.3068 180.361 53.6023 179.224 56.5568C178.088 59.4886 177.52 62.9091 177.52 66.8182ZM461.259 93.5455C459.577 93.5455 458.134 92.9432 456.929 91.7386C455.724 90.5341 455.122 89.0909 455.122 87.4091C455.122 85.7273 455.724 84.2841 456.929 83.0795C458.134 81.875 459.577 81.2727 461.259 81.2727C462.94 81.2727 464.384 81.875 465.588 83.0795C466.793 84.2841 467.395 85.7273 467.395 87.4091C467.395 88.5227 467.111 89.5455 466.543 90.4773C465.997 91.4091 465.259 92.1591 464.327 92.7273C463.418 93.2727 462.395 93.5455 461.259 93.5455Z" fill="#F04A16"/>
<path d="M250.781 93H229.236V23.1818H251.736C258.509 23.1818 264.304 24.5795 269.122 27.375C273.94 30.1477 277.634 34.1364 280.202 39.3409C282.77 44.5227 284.054 50.7273 284.054 57.9545C284.054 65.2273 282.759 71.4886 280.168 76.7386C277.577 81.9659 273.804 85.9886 268.849 88.8068C263.895 91.6023 257.872 93 250.781 93ZM237.69 85.5H250.236C256.009 85.5 260.793 84.3864 264.588 82.1591C268.384 79.9318 271.213 76.7614 273.077 72.6477C274.94 68.5341 275.872 63.6364 275.872 57.9545C275.872 52.3182 274.952 47.4659 273.111 43.3977C271.27 39.3068 268.52 36.1705 264.861 33.9886C261.202 31.7841 256.645 30.6818 251.19 30.6818H237.69V85.5ZM319.099 94.0909C314.054 94.0909 309.702 92.9773 306.043 90.75C302.406 88.5 299.599 85.3636 297.622 81.3409C295.668 77.2955 294.69 72.5909 294.69 67.2273C294.69 61.8636 295.668 57.1364 297.622 53.0455C299.599 48.9318 302.349 45.7273 305.872 43.4318C309.418 41.1136 313.554 39.9545 318.281 39.9545C321.009 39.9545 323.702 40.4091 326.361 41.3182C329.02 42.2273 331.44 43.7045 333.622 45.75C335.804 47.7727 337.543 50.4545 338.838 53.7955C340.134 57.1364 340.781 61.25 340.781 66.1364V69.5455H300.418V62.5909H332.599C332.599 59.6364 332.009 57 330.827 54.6818C329.668 52.3636 328.009 50.5341 325.849 49.1932C323.713 47.8523 321.19 47.1818 318.281 47.1818C315.077 47.1818 312.304 47.9773 309.963 49.5682C307.645 51.1364 305.861 53.1818 304.611 55.7045C303.361 58.2273 302.736 60.9318 302.736 63.8182V68.4545C302.736 72.4091 303.418 75.7614 304.781 78.5114C306.168 81.2386 308.088 83.3182 310.543 84.75C312.997 86.1591 315.849 86.8636 319.099 86.8636C321.213 86.8636 323.122 86.5682 324.827 85.9773C326.554 85.3636 328.043 84.4545 329.293 83.25C330.543 82.0227 331.509 80.5 332.19 78.6818L339.963 80.8636C339.145 83.5 337.77 85.8182 335.838 87.8182C333.906 89.7955 331.52 91.3409 328.679 92.4545C325.838 93.5455 322.645 94.0909 319.099 94.0909ZM390.111 52.3636L382.884 54.4091C382.429 53.2045 381.759 52.0341 380.872 50.8977C380.009 49.7386 378.827 48.7841 377.327 48.0341C375.827 47.2841 373.906 46.9091 371.565 46.9091C368.361 46.9091 365.69 47.6477 363.554 49.125C361.44 50.5795 360.384 52.4318 360.384 54.6818C360.384 56.6818 361.111 58.2614 362.565 59.4205C364.02 60.5795 366.293 61.5455 369.384 62.3182L377.156 64.2273C381.838 65.3636 385.327 67.1023 387.622 69.4432C389.918 71.7614 391.065 74.75 391.065 78.4091C391.065 81.4091 390.202 84.0909 388.474 86.4545C386.77 88.8182 384.384 90.6818 381.315 92.0455C378.247 93.4091 374.679 94.0909 370.611 94.0909C365.27 94.0909 360.849 92.9318 357.349 90.6136C353.849 88.2955 351.634 84.9091 350.702 80.4545L358.338 78.5455C359.065 81.3636 360.44 83.4773 362.463 84.8864C364.509 86.2955 367.179 87 370.474 87C374.224 87 377.202 86.2045 379.406 84.6136C381.634 83 382.747 81.0682 382.747 78.8182C382.747 77 382.111 75.4773 380.838 74.25C379.565 73 377.611 72.0682 374.974 71.4545L366.247 69.4091C361.452 68.2727 357.929 66.5114 355.679 64.125C353.452 61.7159 352.338 58.7045 352.338 55.0909C352.338 52.1364 353.168 49.5227 354.827 47.25C356.509 44.9773 358.793 43.1932 361.679 41.8977C364.588 40.6023 367.884 39.9545 371.565 39.9545C376.747 39.9545 380.815 41.0909 383.77 43.3636C386.747 45.6364 388.861 48.6364 390.111 52.3636ZM410.676 73.9091L410.54 63.9545H412.176L435.085 40.6364H445.04L420.631 65.3182H419.949L410.676 73.9091ZM403.176 93V23.1818H411.222V93H403.176ZM436.449 93L415.994 67.0909L421.722 61.5L446.676 93H436.449Z" fill="black"/>
</svg>
